<?xml version="1.0" encoding="UTF-8" standalone="no"?>

<svg
   width="401.12799"
   height="216.89998"
   viewBox="0 0 401.128 216.89999"
   overflow="visible"
   enable-background="new 0 0 401.128 216.9"
   xml:space="preserve"
   id="svg2"
   sodipodi:version="0.32"
   inkscape:version="0.43"
   sodipodi:docname="logo-old.svg"
   version="1.1"
   inkscape:export-filename="logo-old.svg"
   inkscape:export-xdpi="96"
   inkscape:export-ydpi="96"
   xmlns:inkscape="http://www.inkscape.org/namespaces/inkscape"
   xmlns:sodipodi="http://sodipodi.sourceforge.net/DTD/sodipodi-0.dtd"
   xmlns="http://www.w3.org/2000/svg"
   xmlns:svg="http://www.w3.org/2000/svg"
   xmlns:rdf="http://www.w3.org/1999/02/22-rdf-syntax-ns#"
   xmlns:cc="http://creativecommons.org/ns#"
   xmlns:dc="http://purl.org/dc/elements/1.1/"><metadata
   id="metadata82"><rdf:RDF><cc:Work
       rdf:about=""><dc:format>image/svg+xml</dc:format><dc:type
         rdf:resource="http://purl.org/dc/dcmitype/StillImage" /></cc:Work></rdf:RDF></metadata><defs
   id="defs80" /><sodipodi:namedview
   inkscape:window-height="542"
   inkscape:window-width="839"
   inkscape:pageshadow="2"
   inkscape:pageopacity="0.0"
   borderopacity="1.0"
   bordercolor="#666666"
   pagecolor="#ffffff"
   id="base"
   inkscape:zoom="1.2192621"
   inkscape:cx="200.564"
   inkscape:cy="125.99806"
   inkscape:window-x="28"
   inkscape:window-y="159"
   inkscape:current-layer="svg2"
   inkscape:showpageshadow="2"
   inkscape:pagecheckerboard="0"
   inkscape:deskcolor="#d1d1d1" />
	<g
   id="g5"
   transform="translate(0.06608378,0.10558283)">
			<path
   style="fill:#100f0e"
   id="path7"
   d="m 0,166.931 c -1.625,6.576 27.036,8.195 51.005,-1.257 35.738,-14.093 34.762,-63.576 34.762,-63.576 0,0 -2.275,-2.505 -7.795,0.314 -3.993,2.036 -22.26,10.707 -22.095,7.517 0.329,-6.264 23.72,-14.093 27.942,-14.093 4.222,0 7.475,-5.948 0.976,-7.202 -6.501,-1.257 -30.542,10.331 -35.413,17.224 -2.639,3.732 -6.174,13.465 4.871,10.96 11.045,-2.505 25.017,-8.141 25.017,-8.141 0,0 -3.463,36.414 -26.315,48.857 C 25.338,172.569 1.596,160.469 0,166.931 Z" />
			<path
   style="fill:#100f0e"
   id="path9"
   d="m 108.508,111.962 c 0,2.681 -2.253,4.854 -5.035,4.854 -2.779,0 -5.035,-2.174 -5.035,-4.854 0,-2.679 2.256,-4.853 5.035,-4.853 2.782,0 5.035,2.175 5.035,4.853 z" />
			<path
   style="fill:#100f0e"
   id="path11"
   d="m 152.041,110.397 c 0,2.681 -2.255,4.855 -5.037,4.855 -2.779,0 -5.033,-2.174 -5.033,-4.855 0,-2.681 2.254,-4.854 5.033,-4.854 2.782,0 5.037,2.174 5.037,4.854 z" />
			<path
   style="fill:#100f0e"
   id="path13"
   d="m 200.12,108.517 c 0,2.681 -2.254,4.853 -5.034,4.853 -2.781,0 -5.036,-2.172 -5.036,-4.853 0,-2.679 2.255,-4.853 5.036,-4.853 2.78,0.001 5.034,2.174 5.034,4.853 z" />
			<path
   style="fill:#100f0e"
   id="path15"
   d="m 234.917,108.517 c 0,2.681 -2.255,4.853 -5.033,4.853 -2.777,0 -5.031,-2.172 -5.031,-4.853 0,-2.679 2.254,-4.853 5.031,-4.853 2.779,0.001 5.033,2.174 5.033,4.853 z" />
			<path
   style="fill:#100f0e"
   id="path17"
   d="m 119.223,169.436 c 2.955,-2.036 -1.298,-11.902 -0.649,-31.009 0.649,-19.104 0.649,-25.993 9.097,-31.002 8.445,-5.01 11.124,-11.582 6.174,-15.35 -6.174,-4.698 -15.945,-7.471 -19.169,-1.25 -1.301,2.503 17.87,2.503 14.62,6.889 -3.249,4.385 -13.648,7.835 -15.271,14.097 -1.623,6.262 -2.597,20.983 -1.623,33.198 0.856,10.729 2.274,27.56 6.821,24.427 z" />
			<path
   style="fill:#100f0e"
   id="path19"
   d="m 174.452,114.628 c 8.771,-0.316 11.046,-6.895 11.369,-15.036 0.214,-5.401 -3.247,-11.588 -6.822,-10.337 -3.573,1.254 5.198,17.854 -5.199,18.792 -7.871,0.71 -3.575,-16.6 -9.096,-15.974 -5.521,0.628 -4.478,7.85 -2.924,12.84 1.95,6.268 5.849,9.956 12.672,9.715 z" />
			<path
   style="fill:#100f0e"
   id="path21"
   d="m 212.98,111.809 c 4.869,0 5.547,-30.408 2.921,-60.445 C 213.3,21.61 206.154,-1.881 200.958,0 c -5.774,2.09 5.522,21.61 8.445,52.617 3.183,33.758 -0.973,59.192 3.577,59.192 z" />
			<path
   style="fill:#100f0e"
   id="path23"
   d="m 191.697,43.982 c -0.592,11.435 -18.553,31.48 -31.167,15.74 -12.617,-15.74 5.193,-37.202 11.873,-37.916 6.676,-0.717 20.034,7.866 19.294,22.176 z" />
		</g><g
   id="g25"
   transform="translate(0.06608378,0.10558283)">
			<path
   style="fill:#100f0e;stroke:#100f0e;stroke-linecap:round;stroke-linejoin:bevel"
   id="path27"
   d="m 235.316,126.057 4.161,4.012 14.565,-15.049 c 0,0 28.077,35.109 63.988,35.109 35.896,0 73.35,-17.556 67.628,-69.716 C 383.62,61.85 372.135,49.818 372.135,49.818 l 28.611,-10.533 -4.68,-5.517 -28.618,11.034 c 0,0 -31.726,-28.588 -62.945,-29.091 -31.214,-0.502 -59.825,16.05 -63.985,43.134 -4.162,27.084 9.883,51.662 9.883,51.662 z" />
			<path
   style="fill:#fffdfc;stroke:#100f0e"
   id="path29"
   d="m 260.284,111.509 c 0,0 23.644,-19.526 48.899,-33.604 33.298,-18.559 57.229,-26.583 57.229,-26.583 0,0 26.528,33.605 11.444,62.695 -15.088,29.091 -48.38,36.617 -76.995,28.086 -29.261,-8.721 -40.577,-30.594 -40.577,-30.594 z" />
			<path
   style="fill:#100f0e"
   id="path31"
   d="m 320.082,37.139 c 4.869,6.908 0.317,19.647 -1.019,29.252 -2.239,16.099 2.036,42.994 7.533,58.308 2.005,5.581 -0.202,7.459 -8.551,0.981 -5.482,-4.254 -12.822,-12.378 -18.326,-22.184 -12.015,-21.4 -15.273,-53.989 -12.829,-59.29 1.674,-3.632 8.145,-9.03 14.66,-10.012 6.518,-0.982 15.07,-1.964 18.532,2.945 z" />
			<path
   style="fill:#fffdfc"
   id="path33"
   d="m 291.811,53.067 c 0,-6.981 21.176,-11.999 23.025,-5.583 2.263,7.854 -1.445,13.394 -1.716,30.115 -0.171,10.59 -0.686,16.217 7.209,41.364 0,0 -14.418,-8.93 -22.141,-30.939 -5.208,-14.841 -6.377,-30.137 -6.377,-34.957 z" />
		</g>
</svg>
