<?xml version="1.0" encoding="UTF-8" standalone="no"?>

<svg
   width="166.17017"
   height="135.42911"
   viewBox="0 0 166.17017 135.42911"
   overflow="visible"
   enable-background="new 0 0 401.128 216.9"
   xml:space="preserve"
   id="svg2"
   sodipodi:version="0.32"
   inkscape:version="0.43"
   sodipodi:docname="logo-old.svg"
   version="1.1"
   xmlns:inkscape="http://www.inkscape.org/namespaces/inkscape"
   xmlns:sodipodi="http://sodipodi.sourceforge.net/DTD/sodipodi-0.dtd"
   xmlns="http://www.w3.org/2000/svg"
   xmlns:svg="http://www.w3.org/2000/svg"
   xmlns:rdf="http://www.w3.org/1999/02/22-rdf-syntax-ns#"
   xmlns:cc="http://creativecommons.org/ns#"
   xmlns:dc="http://purl.org/dc/elements/1.1/"><metadata
   id="metadata82"><rdf:RDF><cc:Work
       rdf:about=""><dc:format>image/svg+xml</dc:format><dc:type
         rdf:resource="http://purl.org/dc/dcmitype/StillImage" /></cc:Work></rdf:RDF></metadata><defs
   id="defs80" /><sodipodi:namedview
   inkscape:window-height="1245"
   inkscape:window-width="2304"
   inkscape:pageshadow="2"
   inkscape:pageopacity="0.0"
   borderopacity="1.0"
   bordercolor="#666666"
   pagecolor="#ffffff"
   id="base"
   inkscape:zoom="1.2192621"
   inkscape:cx="200.53112"
   inkscape:cy="126.3059"
   inkscape:window-x="128"
   inkscape:window-y="96"
   inkscape:current-layer="svg2"
   inkscape:showpageshadow="2"
   inkscape:pagecheckerboard="0"
   inkscape:deskcolor="#d1d1d1"
   inkscape:window-maximized="0" />
	<g
   id="g25"
   transform="translate(-234.95712,-15.199886)">
			<path
   style="fill:#100f0e;stroke:#100f0e;stroke-linecap:round;stroke-linejoin:bevel"
   id="path27"
   d="m 235.316,126.057 4.161,4.012 14.565,-15.049 c 0,0 28.077,35.109 63.988,35.109 35.896,0 73.35,-17.556 67.628,-69.716 C 383.62,61.85 372.135,49.818 372.135,49.818 l 28.611,-10.533 -4.68,-5.517 -28.618,11.034 c 0,0 -31.726,-28.588 -62.945,-29.091 -31.214,-0.502 -59.825,16.05 -63.985,43.134 -4.162,27.084 9.883,51.662 9.883,51.662 z" />
			<path
   style="fill:#fffdfc;stroke:#100f0e"
   id="path29"
   d="m 260.284,111.509 c 0,0 23.644,-19.526 48.899,-33.604 33.298,-18.559 57.229,-26.583 57.229,-26.583 0,0 26.528,33.605 11.444,62.695 -15.088,29.091 -48.38,36.617 -76.995,28.086 -29.261,-8.721 -40.577,-30.594 -40.577,-30.594 z" />
			<path
   style="fill:#100f0e"
   id="path31"
   d="m 320.082,37.139 c 4.869,6.908 0.317,19.647 -1.019,29.252 -2.239,16.099 2.036,42.994 7.533,58.308 2.005,5.581 -0.202,7.459 -8.551,0.981 -5.482,-4.254 -12.822,-12.378 -18.326,-22.184 -12.015,-21.4 -15.273,-53.989 -12.829,-59.29 1.674,-3.632 8.145,-9.03 14.66,-10.012 6.518,-0.982 15.07,-1.964 18.532,2.945 z" />
			<path
   style="fill:#fffdfc"
   id="path33"
   d="m 291.811,53.067 c 0,-6.981 21.176,-11.999 23.025,-5.583 2.263,7.854 -1.445,13.394 -1.716,30.115 -0.171,10.59 -0.686,16.217 7.209,41.364 0,0 -14.418,-8.93 -22.141,-30.939 -5.208,-14.841 -6.377,-30.137 -6.377,-34.957 z" />
		</g>
</svg>
